<?xml version="1.0" encoding="UTF-8"?>
<svg width="128" height="128" viewBox="0 0 128 128" xmlns="http://www.w3.org/2000/svg">
    <!-- Background circle -->
    <circle cx="64" cy="64" r="60" fill="#2c3e50"/>
    
    <!-- Inner circle -->
    <circle cx="64" cy="64" r="50" fill="#34495e"/>
    
    <!-- Gears -->
    <g fill="#27ae60">
        <!-- Center gear -->
        <circle cx="64" cy="64" r="20" fill="#27ae60"/>
        <circle cx="64" cy="64" r="15" fill="#34495e"/>
        
        <!-- Gear teeth -->
        <path d="M64 20 L68 20 L70 30 L74 28 L80 32 L78 38 L88 40 L88 44 L78 46 L80 52 L74 56 L70 54 L68 64 L64 64 L62 54 L58 56 L52 52 L54 46 L44 44 L44 40 L54 38 L52 32 L58 28 L62 30 Z" fill="#27ae60"/>
    </g>
    
    <!-- Lightning bolt -->
    <path d="M64 30 L50 60 L64 60 L58 90 L78 60 L64 60 Z" fill="#f1c40f"/>
</svg> 